STARTFONT 2.1
FONT -DEC-MiriamFixed-Medium-R-Normal--17-120-100-100-M-100-ISO8859-8
SIZE 12 100 100
FONTBOUNDINGBOX 10 15 0 -3

STARTPROPERTIES 26
FONTNAME_REGISTRY ""
FAMILY_NAME "MiriamFixed"
FOUNDRY "DEC"
WEIGHT_NAME "Medium"
SLANT "R"
SETWIDTH_NAME "Normal"
ADD_STYLE_NAME ""
PIXEL_SIZE 17
RESOLUTION_X 100
RESOLUTION_Y 100
SPACING "M"
AVERAGE_WIDTH 100
CHARSET_REGISTRY "ISO8859"
CHARSET_ENCODING "8"
CHARSET_COLLECTIONS "ASCII ISO8859-8 "
FULL_NAME "MiriamFixed"
COPYRIGHT "Digital Israel"
CAP_HEIGHT 10
X_HEIGHT 7
_DEC_DEVICE_FONTNAMES "PS=MiriamFixed-ISOLatinHebrew"
QUAD_WIDTH 10
POINT_SIZE 120
WEIGHT 10
DEFAULT_CHAR 0
FONT_DESCENT 3
FONT_ASCENT 12
ENDPROPERTIES

CHARS 152

STARTCHAR space
ENCODING 32
SWIDTH 600 0
DWIDTH 10 0
BBX 10 15 0 -3
BITMAP
0000
0000
0000
0000
0000
0000
0000
0000
0000
0000
0000
0000
0000
0000
0000
ENDCHAR

STARTCHAR exclam
ENCODING 33
SWIDTH 600 0
DWIDTH 10 0
BBX 10 15 0 -3
BITMAP
0000
0800
0800
0800
0800
0800
0800
0800
0800
0000
0800
0800
0000
0000
0000
ENDCHAR

STARTCHAR quotedbl
ENCODING 34
SWIDTH 600 0
DWIDTH 10 0
BBX 10 15 0 -3
BITMAP
0000
1200
1200
1200
1200
1200
0000
0000
0000
0000
0000
0000
0000
0000
0000
ENDCHAR

STARTCHAR numbersign
ENCODING 35
SWIDTH 600 0
DWIDTH 10 0
BBX 10 15 0 -3
BITMAP
0000
1400
1400
1400
1400
7F00
1400
1400
7F00
1400
1400
1400
1400
0000
0000
ENDCHAR

STARTCHAR dollar
ENCODING 36
SWIDTH 600 0
DWIDTH 10 0
BBX 10 15 0 -3
BITMAP
0800
0800
1E00
2200
2000
2000
1C00
0200
0200
2200
3C00
0800
0800
0000
0000
ENDCHAR

STARTCHAR percent
ENCODING 37
SWIDTH 600 0
DWIDTH 10 0
BBX 10 15 0 -3
BITMAP
0000
3800
4400
4400
3800
0300
1C00
6000
0E00
1100
1100
0E00
0000
0000
0000
ENDCHAR

STARTCHAR ampersand
ENCODING 38
SWIDTH 600 0
DWIDTH 10 0
BBX 10 15 0 -3
BITMAP
0000
0000
0000
1800
2400
2000
1000
3200
4A00
4400
4400
3A00
0000
0000
0000
ENDCHAR

STARTCHAR quoteright
ENCODING 39
SWIDTH 600 0
DWIDTH 10 0
BBX 10 15 0 -3
BITMAP
0000
1800
1800
1000
2000
0000
0000
0000
0000
0000
0000
0000
0000
0000
0000
ENDCHAR

STARTCHAR parenleft
ENCODING 40
SWIDTH 600 0
DWIDTH 10 0
BBX 10 15 0 -3
BITMAP
0000
0200
0400
0400
0400
0800
0800
0800
0800
0800
0400
0400
0400
0200
0000
ENDCHAR

STARTCHAR parenright
ENCODING 41
SWIDTH 600 0
DWIDTH 10 0
BBX 10 15 0 -3
BITMAP
0000
2000
1000
1000
1000
0800
0800
0800
0800
0800
1000
1000
1000
2000
0000
ENDCHAR

STARTCHAR asterisk
ENCODING 42
SWIDTH 600 0
DWIDTH 10 0
BBX 10 15 0 -3
BITMAP
0000
0800
0800
7F00
1C00
1400
2200
0000
0000
0000
0000
0000
0000
0000
0000
ENDCHAR

STARTCHAR plus
ENCODING 43
SWIDTH 600 0
DWIDTH 10 0
BBX 10 15 0 -3
BITMAP
0000
0000
0000
0800
0800
0800
0800
7F00
0800
0800
0800
0800
0000
0000
0000
ENDCHAR

STARTCHAR comma
ENCODING 44
SWIDTH 600 0
DWIDTH 10 0
BBX 10 15 0 -3
BITMAP
0000
0000
0000
0000
0000
0000
0000
0000
0000
0000
1800
1800
1000
2000
0000
ENDCHAR

STARTCHAR minus
ENCODING 45
SWIDTH 600 0
DWIDTH 10 0
BBX 10 15 0 -3
BITMAP
0000
0000
0000
0000
0000
0000
0000
7F00
0000
0000
0000
0000
0000
0000
0000
ENDCHAR

STARTCHAR period
ENCODING 46
SWIDTH 600 0
DWIDTH 10 0
BBX 10 15 0 -3
BITMAP
0000
0000
0000
0000
0000
0000
0000
0000
0000
0000
1800
1800
0000
0000
0000
ENDCHAR

STARTCHAR slash
ENCODING 47
SWIDTH 600 0
DWIDTH 10 0
BBX 10 15 0 -3
BITMAP
0000
0100
0100
0200
0200
0400
0400
0400
0800
0800
1000
1000
2000
2000
0000
ENDCHAR

STARTCHAR zero
ENCODING 48
SWIDTH 600 0
DWIDTH 10 0
BBX 10 15 0 -3
BITMAP
0000
1C00
2200
2200
4100
4100
4100
4100
4100
2200
2200
1C00
0000
0000
0000
ENDCHAR

STARTCHAR one
ENCODING 49
SWIDTH 600 0
DWIDTH 10 0
BBX 10 15 0 -3
BITMAP
0000
0800
1800
6800
0800
0800
0800
0800
0800
0800
0800
7F00
0000
0000
0000
ENDCHAR

STARTCHAR two
ENCODING 50
SWIDTH 600 0
DWIDTH 10 0
BBX 10 15 0 -3
BITMAP
0000
1C00
2200
4100
0100
0100
0200
0400
0800
1000
2100
7F00
0000
0000
0000
ENDCHAR

STARTCHAR three
ENCODING 51
SWIDTH 600 0
DWIDTH 10 0
BBX 10 15 0 -3
BITMAP
0000
1C00
2200
4100
0200
0C00
0200
0100
0100
4100
2200
1C00
0000
0000
0000
ENDCHAR

STARTCHAR four
ENCODING 52
SWIDTH 600 0
DWIDTH 10 0
BBX 10 15 0 -3
BITMAP
0000
0600
0600
0A00
1200
1200
2200
4200
7F00
0200
0200
0F00
0000
0000
0000
ENDCHAR

STARTCHAR five
ENCODING 53
SWIDTH 600 0
DWIDTH 10 0
BBX 10 15 0 -3
BITMAP
0000
3F00
2000
2000
2000
3C00
2200
0100
0100
4100
2200
1C00
0000
0000
0000
ENDCHAR

STARTCHAR six
ENCODING 54
SWIDTH 600 0
DWIDTH 10 0
BBX 10 15 0 -3
BITMAP
0000
0700
1800
1000
2000
2E00
3100
2080
2080
2080
1100
0E00
0000
0000
0000
ENDCHAR

STARTCHAR seven
ENCODING 55
SWIDTH 600 0
DWIDTH 10 0
BBX 10 15 0 -3
BITMAP
0000
7E00
4200
0200
0400
0400
0400
0800
0800
0800
1000
1000
0000
0000
0000
ENDCHAR

STARTCHAR eight
ENCODING 56
SWIDTH 600 0
DWIDTH 10 0
BBX 10 15 0 -3
BITMAP
0000
0C00
1200
2100
2100
1E00
1200
2100
2100
2100
1200
0C00
0000
0000
0000
ENDCHAR

STARTCHAR nine
ENCODING 57
SWIDTH 600 0
DWIDTH 10 0
BBX 10 15 0 -3
BITMAP
0000
1C00
2200
4100
4100
2300
1D00
0100
0100
0200
0600
3800
0000
0000
0000
ENDCHAR

STARTCHAR colon
ENCODING 58
SWIDTH 600 0
DWIDTH 10 0
BBX 10 15 0 -3
BITMAP
0000
0000
0000
0000
0000
1800
1800
0000
0000
0000
1800
1800
0000
0000
0000
ENDCHAR

STARTCHAR semicolon
ENCODING 59
SWIDTH 600 0
DWIDTH 10 0
BBX 10 15 0 -3
BITMAP
0000
0000
0000
0000
0000
1800
1800
0000
0000
0000
1800
1800
1000
2000
0000
ENDCHAR

STARTCHAR less
ENCODING 60
SWIDTH 600 0
DWIDTH 10 0
BBX 10 15 0 -3
BITMAP
0000
0000
0000
0080
0300
0C00
3000
4000
3000
0C00
0300
0080
0000
0000
0000
ENDCHAR

STARTCHAR equal
ENCODING 61
SWIDTH 600 0
DWIDTH 10 0
BBX 10 15 0 -3
BITMAP
0000
0000
0000
0000
0000
7F80
0000
0000
7F80
0000
0000
0000
0000
0000
0000
ENDCHAR

STARTCHAR greater
ENCODING 62
SWIDTH 600 0
DWIDTH 10 0
BBX 10 15 0 -3
BITMAP
0000
0000
0000
4000
3000
0C00
0300
0080
0300
0C00
3000
4000
0000
0000
0000
ENDCHAR

STARTCHAR question
ENCODING 63
SWIDTH 600 0
DWIDTH 10 0
BBX 10 15 0 -3
BITMAP
0000
0000
1E00
2100
2100
0100
0600
0800
0800
0000
0800
0800
0000
0000
0000
ENDCHAR

STARTCHAR at
ENCODING 64
SWIDTH 600 0
DWIDTH 10 0
BBX 10 15 0 -3
BITMAP
0000
3E00
4100
4100
8080
9C80
A480
A480
A480
9F00
4000
4100
3E00
0000
0000
ENDCHAR

STARTCHAR A
ENCODING 65
SWIDTH 600 0
DWIDTH 10 0
BBX 10 15 0 -3
BITMAP
0000
0000
7800
1400
1400
2200
2200
2200
3E00
4100
4100
E380
0000
0000
0000
ENDCHAR

STARTCHAR B
ENCODING 66
SWIDTH 600 0
DWIDTH 10 0
BBX 10 15 0 -3
BITMAP
0000
0000
7E00
2100
2080
2100
3E00
2100
2080
2080
2100
7E00
0000
0000
0000
ENDCHAR

STARTCHAR C
ENCODING 67
SWIDTH 600 0
DWIDTH 10 0
BBX 10 15 0 -3
BITMAP
0000
0000
0E80
3180
2080
4000
4000
4000
4000
2080
3180
0E00
0000
0000
0000
ENDCHAR

STARTCHAR D
ENCODING 68
SWIDTH 600 0
DWIDTH 10 0
BBX 10 15 0 -3
BITMAP
0000
0000
7C00
2300
2100
2080
2080
2080
2080
2100
2300
7C00
0000
0000
0000
ENDCHAR

STARTCHAR E
ENCODING 69
SWIDTH 600 0
DWIDTH 10 0
BBX 10 15 0 -3
BITMAP
0000
0000
7F00
2100
2100
2400
3C00
2400
2000
2100
2100
7F00
0000
0000
0000
ENDCHAR

STARTCHAR F
ENCODING 70
SWIDTH 600 0
DWIDTH 10 0
BBX 10 15 0 -3
BITMAP
0000
0000
7F00
2100
2100
2400
3C00
2400
2000
2000
2000
7800
0000
0000
0000
ENDCHAR

STARTCHAR G
ENCODING 71
SWIDTH 600 0
DWIDTH 10 0
BBX 10 15 0 -3
BITMAP
0000
0000
0E80
3180
2080
4000
4000
43C0
4080
2080
3080
0F00
0000
0000
0000
ENDCHAR

STARTCHAR H
ENCODING 72
SWIDTH 600 0
DWIDTH 10 0
BBX 10 15 0 -3
BITMAP
0000
0000
7380
2100
2100
2100
3F00
2100
2100
2100
2100
7380
0000
0000
0000
ENDCHAR

STARTCHAR I
ENCODING 73
SWIDTH 600 0
DWIDTH 10 0
BBX 10 15 0 -3
BITMAP
0000
0000
7F00
0800
0800
0800
0800
0800
0800
0800
0800
7F00
0000
0000
0000
ENDCHAR

STARTCHAR J
ENCODING 74
SWIDTH 600 0
DWIDTH 10 0
BBX 10 15 0 -3
BITMAP
0000
0000
1F80
0200
0200
0200
0200
0200
4200
4200
4200
3C00
0000
0000
0000
ENDCHAR

STARTCHAR K
ENCODING 75
SWIDTH 600 0
DWIDTH 10 0
BBX 10 15 0 -3
BITMAP
0000
0000
7B80
2100
2200
2400
2800
3C00
2200
2200
2100
7980
0000
0000
0000
ENDCHAR

STARTCHAR L
ENCODING 76
SWIDTH 600 0
DWIDTH 10 0
BBX 10 15 0 -3
BITMAP
0000
0000
7C00
1000
1000
1000
1000
1000
1080
1080
1080
7F80
0000
0000
0000
ENDCHAR

STARTCHAR M
ENCODING 77
SWIDTH 600 0
DWIDTH 10 0
BBX 10 15 0 -3
BITMAP
0000
0000
C180
6300
6300
5500
5500
4900
4900
4100
4100
E380
0000
0000
0000
ENDCHAR

STARTCHAR N
ENCODING 78
SWIDTH 600 0
DWIDTH 10 0
BBX 10 15 0 -3
BITMAP
0000
0000
E780
6100
5100
5100
4900
4900
4500
4500
4300
F300
0000
0000
0000
ENDCHAR

STARTCHAR O
ENCODING 79
SWIDTH 600 0
DWIDTH 10 0
BBX 10 15 0 -3
BITMAP
0000
0000
1E00
2100
2100
4080
4080
4080
4080
2100
2100
1E00
0000
0000
0000
ENDCHAR

STARTCHAR P
ENCODING 80
SWIDTH 600 0
DWIDTH 10 0
BBX 10 15 0 -3
BITMAP
0000
0000
7E00
2100
2080
2080
2100
3E00
2000
2000
2000
7C00
0000
0000
0000
ENDCHAR

STARTCHAR Q
ENCODING 81
SWIDTH 600 0
DWIDTH 10 0
BBX 10 15 0 -3
BITMAP
0000
0000
1E00
2100
2100
4080
4080
4080
4080
2100
2100
1E00
0880
1700
0000
ENDCHAR

STARTCHAR R
ENCODING 82
SWIDTH 600 0
DWIDTH 10 0
BBX 10 15 0 -3
BITMAP
0000
0000
7C00
2200
2100
2100
2200
3C00
2200
2100
2100
7980
0000
0000
0000
ENDCHAR

STARTCHAR S
ENCODING 83
SWIDTH 600 0
DWIDTH 10 0
BBX 10 15 0 -3
BITMAP
0000
0000
1D00
2300
4100
4000
3800
0600
0100
4100
6200
5C00
0000
0000
0000
ENDCHAR

STARTCHAR T
ENCODING 84
SWIDTH 600 0
DWIDTH 10 0
BBX 10 15 0 -3
BITMAP
0000
0000
7F00
4900
4900
4900
0800
0800
0800
0800
0800
3E00
0000
0000
0000
ENDCHAR

STARTCHAR U
ENCODING 85
SWIDTH 600 0
DWIDTH 10 0
BBX 10 15 0 -3
BITMAP
0000
0000
F780
4100
4100
4100
4100
4100
4100
4100
2200
1C00
0000
0000
0000
ENDCHAR

STARTCHAR V
ENCODING 86
SWIDTH 600 0
DWIDTH 10 0
BBX 10 15 0 -3
BITMAP
0000
0000
E380
4100
4100
2200
2200
2200
1400
1400
0800
0800
0000
0000
0000
ENDCHAR

STARTCHAR W
ENCODING 87
SWIDTH 600 0
DWIDTH 10 0
BBX 10 15 0 -3
BITMAP
0000
0000
F780
4100
4900
4900
5500
5500
5500
2200
2200
2200
0000
0000
0000
ENDCHAR

STARTCHAR X
ENCODING 88
SWIDTH 600 0
DWIDTH 10 0
BBX 10 15 0 -3
BITMAP
0000
0000
E380
4100
2200
1400
0800
0800
1400
2200
4100
E380
0000
0000
0000
ENDCHAR

STARTCHAR Y
ENCODING 89
SWIDTH 600 0
DWIDTH 10 0
BBX 10 15 0 -3
BITMAP
0000
0000
E380
4100
2200
2200
1400
0800
0800
0800
0800
3E00
0000
0000
0000
ENDCHAR

STARTCHAR Z
ENCODING 90
SWIDTH 600 0
DWIDTH 10 0
BBX 10 15 0 -3
BITMAP
0000
0000
7F00
4100
4200
0400
0800
0800
1000
2100
4100
7F00
0000
0000
0000
ENDCHAR

STARTCHAR bracketleft
ENCODING 91
SWIDTH 600 0
DWIDTH 10 0
BBX 10 15 0 -3
BITMAP
0000
0E00
0800
0800
0800
0800
0800
0800
0800
0800
0800
0800
0800
0E00
0000
ENDCHAR

STARTCHAR backslash
ENCODING 92
SWIDTH 600 0
DWIDTH 10 0
BBX 10 15 0 -3
BITMAP
0000
2000
2000
1000
1000
0800
0800
0800
0400
0400
0200
0200
0100
0100
0000
ENDCHAR

STARTCHAR bracketright
ENCODING 93
SWIDTH 600 0
DWIDTH 10 0
BBX 10 15 0 -3
BITMAP
0000
3800
0800
0800
0800
0800
0800
0800
0800
0800
0800
0800
0800
3800
0000
ENDCHAR

STARTCHAR asciicircum
ENCODING 94
SWIDTH 600 0
DWIDTH 10 0
BBX 10 15 0 -3
BITMAP
0000
0800
1400
2200
4100
0000
0000
0000
0000
0000
0000
0000
0000
0000
0000
ENDCHAR

STARTCHAR underscore
ENCODING 95
SWIDTH 600 0
DWIDTH 10 0
BBX 10 15 0 -3
BITMAP
0000
0000
0000
0000
0000
0000
0000
0000
0000
0000
0000
0000
0000
0000
FFC0
ENDCHAR

STARTCHAR quoteleft
ENCODING 96
SWIDTH 600 0
DWIDTH 10 0
BBX 10 15 0 -3
BITMAP
0000
0C00
0C00
0400
0200
0000
0000
0000
0000
0000
0000
0000
0000
0000
0000
ENDCHAR

STARTCHAR a
ENCODING 97
SWIDTH 600 0
DWIDTH 10 0
BBX 10 15 0 -3
BITMAP
0000
0000
0000
0000
0000
1C00
2200
0200
3E00
4200
4200
3D00
0000
0000
0000
ENDCHAR

STARTCHAR b
ENCODING 98
SWIDTH 600 0
DWIDTH 10 0
BBX 10 15 0 -3
BITMAP
0000
0000
C000
4000
4000
5C00
6200
4100
4100
4100
6200
DC00
0000
0000
0000
ENDCHAR

STARTCHAR c
ENCODING 99
SWIDTH 600 0
DWIDTH 10 0
BBX 10 15 0 -3
BITMAP
0000
0000
0000
0000
0000
1D00
2300
4100
4000
4000
2100
1E00
0000
0000
0000
ENDCHAR

STARTCHAR d
ENCODING 100
SWIDTH 600 0
DWIDTH 10 0
BBX 10 15 0 -3
BITMAP
0000
0000
0300
0100
0100
1D00
2300
4100
4100
4100
2300
1D80
0000
0000
0000
ENDCHAR

STARTCHAR e
ENCODING 101
SWIDTH 600 0
DWIDTH 10 0
BBX 10 15 0 -3
BITMAP
0000
0000
0000
0000
0000
1C00
2200
4100
7F00
4000
2100
1E00
0000
0000
0000
ENDCHAR

STARTCHAR f
ENCODING 102
SWIDTH 600 0
DWIDTH 10 0
BBX 10 15 0 -3
BITMAP
0000
0000
0700
0880
0800
3F00
0800
0800
0800
0800
0800
3F00
0000
0000
0000
ENDCHAR

STARTCHAR g
ENCODING 103
SWIDTH 600 0
DWIDTH 10 0
BBX 10 15 0 -3
BITMAP
0000
0000
0000
0000
0000
1D80
2300
4100
4100
4100
2300
1D00
0100
0100
1E00
ENDCHAR

STARTCHAR h
ENCODING 104
SWIDTH 600 0
DWIDTH 10 0
BBX 10 15 0 -3
BITMAP
0000
0000
6000
2000
2000
2E00
3100
2100
2100
2100
2100
7380
0000
0000
0000
ENDCHAR

STARTCHAR i
ENCODING 105
SWIDTH 600 0
DWIDTH 10 0
BBX 10 15 0 -3
BITMAP
0000
0000
0800
0800
0000
3800
0800
0800
0800
0800
0800
7F00
0000
0000
0000
ENDCHAR

STARTCHAR j
ENCODING 106
SWIDTH 600 0
DWIDTH 10 0
BBX 10 15 0 -3
BITMAP
0000
0000
0400
0400
0000
3E00
0200
0200
0200
0200
0200
0200
0200
0200
3C00
ENDCHAR

STARTCHAR k
ENCODING 107
SWIDTH 600 0
DWIDTH 10 0
BBX 10 15 0 -3
BITMAP
0000
0000
6000
2000
2000
2780
2200
2400
3800
2400
2200
6780
0000
0000
0000
ENDCHAR

STARTCHAR l
ENCODING 108
SWIDTH 600 0
DWIDTH 10 0
BBX 10 15 0 -3
BITMAP
0000
0000
3800
0800
0800
0800
0800
0800
0800
0800
0800
7F00
0000
0000
0000
ENDCHAR

STARTCHAR m
ENCODING 109
SWIDTH 600 0
DWIDTH 10 0
BBX 10 15 0 -3
BITMAP
0000
0000
0000
0000
0000
DB00
6D00
4900
4900
4900
4900
ED80
0000
0000
0000
ENDCHAR

STARTCHAR n
ENCODING 110
SWIDTH 600 0
DWIDTH 10 0
BBX 10 15 0 -3
BITMAP
0000
0000
0000
0000
0000
6E00
3100
2100
2100
2100
2100
7380
0000
0000
0000
ENDCHAR

STARTCHAR o
ENCODING 111
SWIDTH 600 0
DWIDTH 10 0
BBX 10 15 0 -3
BITMAP
0000
0000
0000
0000
0000
1C00
2200
4100
4100
4100
2200
1C00
0000
0000
0000
ENDCHAR

STARTCHAR p
ENCODING 112
SWIDTH 600 0
DWIDTH 10 0
BBX 10 15 0 -3
BITMAP
0000
0000
0000
0000
0000
6E00
3100
2080
2080
2080
3100
2E00
2000
2000
7800
ENDCHAR

STARTCHAR q
ENCODING 113
SWIDTH 600 0
DWIDTH 10 0
BBX 10 15 0 -3
BITMAP
0000
0000
0000
0000
0000
1D80
2300
4100
4100
4100
2300
1D00
0100
0100
0780
ENDCHAR

STARTCHAR r
ENCODING 114
SWIDTH 600 0
DWIDTH 10 0
BBX 10 15 0 -3
BITMAP
0000
0000
0000
0000
0000
7700
1880
1000
1000
1000
1000
7E00
0000
0000
0000
ENDCHAR

STARTCHAR s
ENCODING 115
SWIDTH 600 0
DWIDTH 10 0
BBX 10 15 0 -3
BITMAP
0000
0000
0000
0000
0000
1F00
2100
2000
1E00
0100
2100
3E00
0000
0000
0000
ENDCHAR

STARTCHAR t
ENCODING 116
SWIDTH 600 0
DWIDTH 10 0
BBX 10 15 0 -3
BITMAP
0000
0000
0000
2000
2000
FE00
2000
2000
2000
2000
2100
1E00
0000
0000
0000
ENDCHAR

STARTCHAR u
ENCODING 117
SWIDTH 600 0
DWIDTH 10 0
BBX 10 15 0 -3
BITMAP
0000
0000
0000
0000
0000
6300
2100
2100
2100
2100
2300
1D80
0000
0000
0000
ENDCHAR

STARTCHAR v
ENCODING 118
SWIDTH 600 0
DWIDTH 10 0
BBX 10 15 0 -3
BITMAP
0000
0000
0000
0000
0000
F780
4100
2200
2200
1400
1400
0800
0000
0000
0000
ENDCHAR

STARTCHAR w
ENCODING 119
SWIDTH 600 0
DWIDTH 10 0
BBX 10 15 0 -3
BITMAP
0000
0000
0000
0000
0000
E380
4100
4900
2A00
2A00
3600
2200
0000
0000
0000
ENDCHAR

STARTCHAR x
ENCODING 120
SWIDTH 600 0
DWIDTH 10 0
BBX 10 15 0 -3
BITMAP
0000
0000
0000
0000
0000
7700
2200
1400
0800
1400
2200
7700
0000
0000
0000
ENDCHAR

STARTCHAR y
ENCODING 121
SWIDTH 600 0
DWIDTH 10 0
BBX 10 15 0 -3
BITMAP
0000
0000
0000
0000
0000
E380
4100
2200
2200
1400
1400
0800
0800
1000
7800
ENDCHAR

STARTCHAR z
ENCODING 122
SWIDTH 600 0
DWIDTH 10 0
BBX 10 15 0 -3
BITMAP
0000
0000
0000
0000
0000
3F00
2200
0400
0800
1000
2100
3F00
0000
0000
0000
ENDCHAR

STARTCHAR braceleft
ENCODING 123
SWIDTH 600 0
DWIDTH 10 0
BBX 10 15 0 -3
BITMAP
0000
0400
0800
0800
0800
0800
0800
1000
0800
0800
0800
0800
0800
0400
0000
ENDCHAR

STARTCHAR bar
ENCODING 124
SWIDTH 600 0
DWIDTH 10 0
BBX 10 15 0 -3
BITMAP
0000
0000
0800
0800
0800
0800
0800
0800
0800
0800
0800
0800
0800
0800
0000
ENDCHAR

STARTCHAR braceright
ENCODING 125
SWIDTH 600 0
DWIDTH 10 0
BBX 10 15 0 -3
BITMAP
0000
1000
0800
0800
0800
0800
0800
0400
0800
0800
0800
0800
0800
1000
0000
ENDCHAR

STARTCHAR asciitilde
ENCODING 126
SWIDTH 600 0
DWIDTH 10 0
BBX 10 15 0 -3
BITMAP
0000
0000
0000
0000
0000
0000
3000
4900
0600
0000
0000
0000
0000
0000
0000
ENDCHAR

STARTCHAR cent
ENCODING 162
SWIDTH 600 0
DWIDTH 10 0
BBX 10 15 0 -3
BITMAP
0000
0000
0800
0800
1E00
2200
2000
2000
2200
1C00
0800
0800
0000
0000
0000
ENDCHAR

STARTCHAR sterling
ENCODING 163
SWIDTH 600 0
DWIDTH 10 0
BBX 10 15 0 -3
BITMAP
0000
0000
0E00
1100
1000
1000
7C00
1000
1000
1000
2080
7F80
0000
0000
0000
ENDCHAR

STARTCHAR currency
ENCODING 164
SWIDTH 600 0
DWIDTH 10 0
BBX 10 15 0 -3
BITMAP
0000
0000
0000
0000
4100
3E00
2200
2200
2200
3E00
4100
0000
0000
0000
0000
ENDCHAR

STARTCHAR yen
ENCODING 165
SWIDTH 600 0
DWIDTH 10 0
BBX 10 15 0 -3
BITMAP
0000
0000
E380
4100
2200
2200
1400
3E00
0800
3E00
0800
3E00
0000
0000
0000
ENDCHAR

STARTCHAR brokenbar
ENCODING 166
SWIDTH 600 0
DWIDTH 10 0
BBX 10 15 0 -3
BITMAP
0000
0000
0800
0800
0800
0800
0800
0000
0000
0800
0800
0800
0800
0800
0000
ENDCHAR

STARTCHAR section
ENCODING 167
SWIDTH 600 0
DWIDTH 10 0
BBX 10 15 0 -3
BITMAP
0000
1F00
2100
2100
7000
8C00
8300
6080
1880
0700
4200
4200
7C00
0000
0000
ENDCHAR

STARTCHAR dieresis
ENCODING 168
SWIDTH 600 0
DWIDTH 10 0
BBX 10 15 0 -3
BITMAP
0000
0000
1200
1200
0000
0000
0000
0000
0000
0000
0000
0000
0000
0000
0000
ENDCHAR

STARTCHAR copyright
ENCODING 169
SWIDTH 600 0
DWIDTH 10 0
BBX 10 15 0 -3
BITMAP
0000
0000
1E00
2100
4080
8E40
9040
9040
8E40
4080
2100
1E00
0000
0000
0000
ENDCHAR

STARTCHAR multiply
ENCODING 170
SWIDTH 600 0
DWIDTH 10 0
BBX 10 15 0 -3
BITMAP
0000
0000
0000
0000
4100
2200
1400
0800
1400
2200
4100
0000
0000
0000
0000
ENDCHAR

STARTCHAR guillemotleft
ENCODING 171
SWIDTH 600 0
DWIDTH 10 0
BBX 10 15 0 -3
BITMAP
0000
0000
0000
0000
0000
0900
1200
2400
4800
2400
1200
0900
0000
0000
0000
ENDCHAR

STARTCHAR logicalnot
ENCODING 172
SWIDTH 600 0
DWIDTH 10 0
BBX 10 15 0 -3
BITMAP
0000
0000
0000
0000
0000
0000
7F00
0100
0100
0100
0000
0000
0000
0000
0000
ENDCHAR

STARTCHAR hyphen
ENCODING 173
SWIDTH 600 0
DWIDTH 10 0
BBX 10 15 0 -3
BITMAP
0000
0000
0000
0000
0000
0000
0000
7F00
0000
0000
0000
0000
0000
0000
0000
ENDCHAR

STARTCHAR registered
ENCODING 174
SWIDTH 600 0
DWIDTH 10 0
BBX 10 15 0 -3
BITMAP
0000
0000
1E00
2100
4080
9C40
9240
9C40
9240
4080
2100
1E00
0000
0000
0000
ENDCHAR

STARTCHAR macron
ENCODING 175
SWIDTH 600 0
DWIDTH 10 0
BBX 10 15 0 -3
BITMAP
0000
0000
0000
3E00
0000
0000
0000
0000
0000
0000
0000
0000
0000
0000
0000
ENDCHAR

STARTCHAR degree
ENCODING 176
SWIDTH 600 0
DWIDTH 10 0
BBX 10 15 0 -3
BITMAP
0000
1C00
2200
2200
2200
1C00
0000
0000
0000
0000
0000
0000
0000
0000
0000
ENDCHAR

STARTCHAR plusminus
ENCODING 177
SWIDTH 600 0
DWIDTH 10 0
BBX 10 15 0 -3
BITMAP
0000
0000
0000
0800
0800
0800
7F00
0800
0800
0800
0000
7F00
0000
0000
0000
ENDCHAR

STARTCHAR twosuperior
ENCODING 178
SWIDTH 600 0
DWIDTH 10 0
BBX 10 15 0 -3
BITMAP
0000
1800
2400
0800
1000
2400
3C00
0000
0000
0000
0000
0000
0000
0000
0000
ENDCHAR

STARTCHAR threesuperior
ENCODING 179
SWIDTH 600 0
DWIDTH 10 0
BBX 10 15 0 -3
BITMAP
0000
0C00
1200
0400
0200
1200
0C00
0000
0000
0000
0000
0000
0000
0000
0000
ENDCHAR

STARTCHAR acute
ENCODING 180
SWIDTH 600 0
DWIDTH 10 0
BBX 10 15 0 -3
BITMAP
0000
0200
0400
0800
0000
0000
0000
0000
0000
0000
0000
0000
0000
0000
0000
ENDCHAR

STARTCHAR mu
ENCODING 181
SWIDTH 600 0
DWIDTH 10 0
BBX 10 15 0 -3
BITMAP
0000
0000
0000
0000
0000
6300
2100
2100
2100
2100
2300
3D80
2000
2000
2000
ENDCHAR

STARTCHAR paragraph
ENCODING 182
SWIDTH 600 0
DWIDTH 10 0
BBX 10 15 0 -3
BITMAP
0000
1F00
2A00
4A00
4A00
4A00
2A00
1A00
0A00
0A00
0A00
0A00
1F00
0000
0000
ENDCHAR

STARTCHAR periodcentered
ENCODING 183
SWIDTH 600 0
DWIDTH 10 0
BBX 10 15 0 -3
BITMAP
0000
0000
0000
0000
0000
0000
0C00
0C00
0000
0000
0000
0000
0000
0000
0000
ENDCHAR

STARTCHAR cedilla
ENCODING 184
SWIDTH 600 0
DWIDTH 10 0
BBX 10 15 0 -3
BITMAP
0000
0000
0000
0000
0000
0000
0000
0000
0000
0000
0000
0800
0800
0400
1C00
ENDCHAR

STARTCHAR onesuperior
ENCODING 185
SWIDTH 600 0
DWIDTH 10 0
BBX 10 15 0 -3
BITMAP
0000
0800
3800
0800
0800
0800
3E00
0000
0000
0000
0000
0000
0000
0000
0000
ENDCHAR

STARTCHAR divide
ENCODING 186
SWIDTH 600 0
DWIDTH 10 0
BBX 10 15 0 -3
BITMAP
0000
0000
0000
0000
0C00
0C00
0000
7F80
0000
0C00
0C00
0000
0000
0000
0000
ENDCHAR

STARTCHAR guillemotright
ENCODING 187
SWIDTH 600 0
DWIDTH 10 0
BBX 10 15 0 -3
BITMAP
0000
0000
0000
0000
0000
4800
2400
1200
0900
1200
2400
4800
0000
0000
0000
ENDCHAR

STARTCHAR onequarter
ENCODING 188
SWIDTH 600 0
DWIDTH 10 0
BBX 10 15 0 -3
BITMAP
0000
2000
E040
2080
2100
2200
FC80
0980
1280
2480
47C0
0080
0000
0000
0000
ENDCHAR

STARTCHAR onehalf
ENCODING 189
SWIDTH 600 0
DWIDTH 10 0
BBX 10 15 0 -3
BITMAP
0000
2000
E040
2080
2100
2200
FD80
0A40
1080
2100
4240
03C0
0000
0000
0000
ENDCHAR

STARTCHAR threequarters
ENCODING 190
SWIDTH 600 0
DWIDTH 10 0
BBX 10 15 0 -3
BITMAP
0000
6000
9040
2080
1100
9200
6480
0980
1280
2480
47C0
0080
0000
0000
0000
ENDCHAR

STARTCHAR dblunderscore
ENCODING 223
SWIDTH 600 0
DWIDTH 10 0
BBX 10 15 0 -3
BITMAP
0000
0000
0000
0000
0000
0000
0000
0000
0000
0000
0000
FFC0
0000
0000
FFC0
ENDCHAR

STARTCHAR aleph
ENCODING 224
SWIDTH 600 0
DWIDTH 10 0
BBX 10 15 0 -3
BITMAP
0000
0000
0000
4700
2100
1100
2900
4E00
4400
4600
4200
7300
0000
0000
0000
ENDCHAR

STARTCHAR beth
ENCODING 225
SWIDTH 600 0
DWIDTH 10 0
BBX 10 15 0 -3
BITMAP
0000
0000
0000
3C00
0200
0200
0200
0200
0200
0200
0200
7F80
0000
0000
0000
ENDCHAR

STARTCHAR gimmel
ENCODING 226
SWIDTH 600 0
DWIDTH 10 0
BBX 10 15 0 -3
BITMAP
0000
0000
0000
0F00
0100
0100
0100
0300
0300
0500
0900
3100
0000
0000
0000
ENDCHAR

STARTCHAR daleth
ENCODING 227
SWIDTH 600 0
DWIDTH 10 0
BBX 10 15 0 -3
BITMAP
0000
0000
0000
7F80
0200
0200
0200
0200
0200
0200
0200
0200
0000
0000
0000
ENDCHAR

STARTCHAR he
ENCODING 228
SWIDTH 600 0
DWIDTH 10 0
BBX 10 15 0 -3
BITMAP
0000
0000
0000
7F00
0100
0100
2100
2100
2100
2100
2100
2100
0000
0000
0000
ENDCHAR

STARTCHAR waw
ENCODING 229
SWIDTH 600 0
DWIDTH 10 0
BBX 10 15 0 -3
BITMAP
0000
0000
0000
3C00
0400
0400
0400
0400
0400
0400
0400
0400
0000
0000
0000
ENDCHAR

STARTCHAR zayin
ENCODING 230
SWIDTH 600 0
DWIDTH 10 0
BBX 10 15 0 -3
BITMAP
0000
0000
0000
3E00
0800
0800
0800
0800
0800
0800
0800
0800
0000
0000
0000
ENDCHAR

STARTCHAR het
ENCODING 231
SWIDTH 600 0
DWIDTH 10 0
BBX 10 15 0 -3
BITMAP
0000
0000
0000
7F00
2200
2200
2200
2200
2200
2200
2200
2200
0000
0000
0000
ENDCHAR

STARTCHAR teth
ENCODING 232
SWIDTH 600 0
DWIDTH 10 0
BBX 10 15 0 -3
BITMAP
0000
0000
0000
E300
2480
2480
2480
2080
2080
2080
2080
1F00
0000
0000
0000
ENDCHAR

STARTCHAR yod
ENCODING 233
SWIDTH 600 0
DWIDTH 10 0
BBX 10 15 0 -3
BITMAP
0000
0000
0000
3E00
0200
0200
0200
0200
0200
0000
0000
0000
0000
0000
0000
ENDCHAR

STARTCHAR kaphfinal
ENCODING 234
SWIDTH 600 0
DWIDTH 10 0
BBX 10 15 0 -3
BITMAP
0000
0000
0000
7F80
0200
0200
0200
0200
0200
0200
0200
0200
0200
0200
0380
ENDCHAR

STARTCHAR kaph
ENCODING 235
SWIDTH 600 0
DWIDTH 10 0
BBX 10 15 0 -3
BITMAP
0000
0000
0000
3E00
0100
0100
0100
0100
0100
0100
0100
3E00
0000
0000
0000
ENDCHAR

STARTCHAR lamed
ENCODING 236
SWIDTH 600 0
DWIDTH 10 0
BBX 10 15 0 -3
BITMAP
0000
2000
2000
3F80
0080
0080
0080
0100
0200
0400
0800
0E00
0000
0000
0000
ENDCHAR

STARTCHAR memfinal
ENCODING 237
SWIDTH 600 0
DWIDTH 10 0
BBX 10 15 0 -3
BITMAP
0000
0000
0000
7F00
2080
2080
2080
2080
2080
2080
2080
3F80
0000
0000
0000
ENDCHAR

STARTCHAR mem
ENCODING 238
SWIDTH 600 0
DWIDTH 10 0
BBX 10 15 0 -3
BITMAP
0000
0000
0000
6700
2880
3080
2080
2080
2080
2080
2080
2780
0000
0000
0000
ENDCHAR

STARTCHAR nunfinal
ENCODING 239
SWIDTH 600 0
DWIDTH 10 0
BBX 10 15 0 -3
BITMAP
0000
0000
0000
1E00
0200
0200
0200
0200
0200
0200
0200
0200
0200
0200
0380
ENDCHAR

STARTCHAR nun
ENCODING 240
SWIDTH 600 0
DWIDTH 10 0
BBX 10 15 0 -3
BITMAP
0000
0000
0000
0F00
0100
0100
0100
0100
0100
0100
0100
1F00
0000
0000
0000
ENDCHAR

STARTCHAR samekh
ENCODING 241
SWIDTH 600 0
DWIDTH 10 0
BBX 10 15 0 -3
BITMAP
0000
0000
0000
7F00
2080
2080
2080
2080
2080
2080
1100
0E00
0000
0000
0000
ENDCHAR

STARTCHAR ayin
ENCODING 242
SWIDTH 600 0
DWIDTH 10 0
BBX 10 15 0 -3
BITMAP
0000
0000
0000
7380
1080
1080
1080
1080
1080
1080
1100
7E00
0000
0000
0000
ENDCHAR

STARTCHAR pefinal
ENCODING 243
SWIDTH 600 0
DWIDTH 10 0
BBX 10 15 0 -3
BITMAP
0000
0000
0000
7F00
4100
4100
4100
4100
7900
0100
0100
0100
0100
0100
01C0
ENDCHAR

STARTCHAR pe
ENCODING 244
SWIDTH 600 0
DWIDTH 10 0
BBX 10 15 0 -3
BITMAP
0000
0000
0000
7E00
4100
4100
4100
7100
0100
0100
0100
7E00
0000
0000
0000
ENDCHAR

STARTCHAR zadikfinal
ENCODING 245
SWIDTH 600 0
DWIDTH 10 0
BBX 10 15 0 -3
BITMAP
0000
0000
0000
7380
1080
1080
1080
1100
1E00
1000
1000
1000
1000
1000
1C00
ENDCHAR

STARTCHAR zadik
ENCODING 246
SWIDTH 600 0
DWIDTH 10 0
BBX 10 15 0 -3
BITMAP
0000
0000
0000
7380
1080
1080
1100
0E00
0400
0200
0100
7F00
0000
0000
0000
ENDCHAR

STARTCHAR kof
ENCODING 247
SWIDTH 600 0
DWIDTH 10 0
BBX 10 15 0 -3
BITMAP
0000
0000
0000
7F00
0080
0080
2080
2080
2100
2200
2400
2700
2000
2000
2000
ENDCHAR

STARTCHAR resh
ENCODING 248
SWIDTH 600 0
DWIDTH 10 0
BBX 10 15 0 -3
BITMAP
0000
0000
0000
7E00
0100
0100
0100
0100
0100
0100
0100
0100
0000
0000
0000
ENDCHAR

STARTCHAR shin
ENCODING 249
SWIDTH 600 0
DWIDTH 10 0
BBX 10 15 0 -3
BITMAP
0000
0000
0000
C980
8880
8880
8880
8880
8880
8880
8880
7F00
0000
0000
0000
ENDCHAR

STARTCHAR taf
ENCODING 250
SWIDTH 600 0
DWIDTH 10 0
BBX 10 15 0 -3
BITMAP
0000
0000
0000
7F00
1080
1080
1080
1080
1080
1080
1080
7080
0000
0000
0000
ENDCHAR
ENDFONT
